<?xml version="1.0" standalone="no"?><!DOCTYPE svg PUBLIC "-//W3C//DTD SVG 1.1//EN" "http://www.w3.org/Graphics/SVG/1.1/DTD/svg11.dtd"><svg class="icon" height="512" viewBox="0 0 1024 1024" version="1.1" xmlns="http://www.w3.org/2000/svg"><path d="M62.877193 251.472842c1.185684-24.342456 1.922246-48.720842 3.664842-73.009403C68.715789 148.138667 92.519298 123.742316 121.083509 121.766175c25.348491-1.742596 50.840702-2.155789 76.081403-5.030175C298.073825 105.184561 391.275789 69.883509 476.860632 12.000561c17.282246-11.677193 35.336982-15.503719 54.882807-8.479438 5.209825 1.868351 10.24 4.742737 14.910877 7.904561 76.243088 51.667088 159.007439 85.261474 248.203228 100.872983 33.72014 5.910456 67.691789 8.659088 101.861052 9.162105 36.181333 0.538947 59.697404 25.689825 62.212492 64.170667a988.483368 988.483368 0 0 1-1.616842 152.701754c-15.809123 176.397474-70.961404 336.249263-178.786807 473.339509-65.985123 83.89614-146.216421 148.264421-240.083088 193.266526-17.875088 8.569263-35.462737 8.066246-53.301895-0.538947-84.974035-40.88814-158.773895-98.034526-221.435509-171.349334-81.596632-95.447579-136.12014-206.578526-168.456982-330.374736C73.79986 420.558596 63.739509 336.734316 62.877193 251.490807z m62.841263-65.895298c-0.664702 12.054456-1.562947 23.875368-1.886316 35.714245-1.580912 58.978807 1.796491 117.616281 10.850807 175.876492 14.461754 93.058246 41.894175 181.355789 85.620772 263.599158 67.368421 126.652632 161.648281 222.854737 286.450527 284.276772 3.916351 1.922246 7.006316 2.030035 10.976561 0.089824 113.196912-55.511579 202.392702-140.162246 268.35986-252.047719 88.513123-150.096842 121.245193-315.284211 113.933473-490.711579-0.233544-5.623018-0.898246-11.22807-1.383298-16.994807-2.137825-0.143719-3.772632-0.323368-5.389474-0.359298a689.852632 689.852632 0 0 1-112.280701-10.671158c-94.603228-17.210386-182.559439-52.888702-263.617123-107.609825-3.539088-2.389333-6.054175-2.676772-9.862737-0.179649-14.964772 9.736982-29.965474 19.473965-45.451228 28.258807-89.555088 50.984421-185.038596 80.410947-286.414597 87.99214-16.258246 1.221614-32.570386 1.832421-49.906526 2.766597z m584.883649 496.190877a28.384561 28.384561 0 0 1-40.223438 0l-84.974035-84.88421a171.295439 171.295439 0 0 1-99.741193 31.851789c-94.872702 0-171.780491-76.83593-171.780492-171.600842 0-94.764912 76.907789-171.582877 171.780492-171.582877 94.908632 0 171.816421 76.817965 171.816421 171.564912 0 36.253193-11.281965 70.781754-31.869755 99.579509l84.974035 84.88421c11.138246 11.084351 11.138246 29.085193 0 40.169544z m-335.76421-224.633263c0 61.080702 49.708912 110.699789 110.843509 110.699789 61.152561 0 110.843509-49.637053 110.843508-110.699789 0-61.044772-49.690947-110.699789-110.843508-110.69979-61.134596 0-110.843509 49.655018-110.843509 110.69979z" /></svg>